<svg id="Layer_1" data-name="Layer 1" xmlns="http://www.w3.org/2000/svg" viewBox="0 0 106.38 109.11"><defs><style>.cls-1{fill:none;stroke:#1c2a36;stroke-miterlimit:10;}.cls-2{fill:#2f3f59;}.cls-10,.cls-3,.cls-7{fill:#1c2a36;}.cls-4{fill:#f175ad;}.cls-5{fill:#f05789;}.cls-6{fill:#e9d638;}.cls-7{font-size:30.34px;letter-spacing:-0.06em;}.cls-10,.cls-7{font-family:BodoniMT, Bodoni MT;}.cls-8{letter-spacing:-0.02em;}.cls-9{letter-spacing:0em;}.cls-10{font-size:17.7px;}</style></defs><line class="cls-1" x1="28.78" y1="37.42" x2="77.6" y2="37.42"/><path class="cls-2" d="M134.27,66.4h-5.22V55.12a7.86,7.86,0,0,0-7.86-7.86h-.81a7.86,7.86,0,0,0-7.86,7.86V66.4H107.3V55.12A13.1,13.1,0,0,1,120.38,42h.81a13.1,13.1,0,0,1,13.08,13.08Z" transform="translate(-67.59 -14.27)"/><path class="cls-3" d="M121.19,42h-.41v5.22h.41a7.86,7.86,0,0,1,7.86,7.86V66.4h5.22V55.12A13.1,13.1,0,0,0,121.19,42Z" transform="translate(-67.59 -14.27)"/><path class="cls-4" d="M155.28,123.38h-69a10,10,0,0,1-9.8-11.95l7.93-39.6a10,10,0,0,1,9.79-8h53.14a10,10,0,0,1,9.8,8l7.92,39.6a10,10,0,0,1-9.79,11.95Z" transform="translate(-67.59 -14.27)"/><path class="cls-5" d="M157.15,71.83a10,10,0,0,0-9.8-8H120.78v59.59h34.5a10,10,0,0,0,9.79-11.95Z" transform="translate(-67.59 -14.27)"/><path class="cls-6" d="M104.47,85.49a2.6,2.6,0,0,1-2.61-2.6V77.45a2.61,2.61,0,0,1,5.22,0v5.44A2.6,2.6,0,0,1,104.47,85.49Z" transform="translate(-67.59 -14.27)"/><path class="cls-2" d="M142.53,79.88H99a2.61,2.61,0,0,1,0-5.21h43.5a2.61,2.61,0,1,1,0,5.21Z" transform="translate(-67.59 -14.27)"/><path class="cls-3" d="M142.53,74.67H120.78v5.21h21.75a2.61,2.61,0,1,0,0-5.21Z" transform="translate(-67.59 -14.27)"/><text class="cls-7" transform="translate(0 25.1)">B<tspan class="cls-8" x="19.48" y="0">A</tspan><tspan class="cls-9" x="40.38" y="0">GGY</tspan></text><text class="cls-10" transform="translate(33.65 92.09)">Store</text></svg>