<svg height="512" viewBox="0 0 64 64" width="512" xmlns="http://www.w3.org/2000/svg"><g id="Bag-handbag-ladies_bag-3" data-name="Bag-handbag-ladies bag"><path d="m48 29h-32a1 1 0 0 1 -.864-1.5l12.992-23.276a4.483 4.483 0 0 1 7.744 0l12.992 23.276a1 1 0 0 1 -.864 1.5zm-30.259-2h28.518l-12.115-21.769a2.483 2.483 0 0 0 -4.288 0z" fill="#a78966"/><path d="m55.72 35.27-1.12 16.73-.23 3.4a5.789 5.789 0 0 1 -.07.6 5.987 5.987 0 0 1 -5.91 5h-32.78a5.993 5.993 0 0 1 -5.98-5.6l-1.35-20.13a4.005 4.005 0 0 1 3.72-4.26v-.01h40v.01a3.7 3.7 0 0 1 1 .2 4 4 0 0 1 2.72 4.06z" fill="#cd2e7a"/><path d="m53 31.21v8.17a3.048 3.048 0 0 1 -.24 1.19l-1.72 4.01a4 4 0 0 1 -3.68 2.42h-28.72a3.939 3.939 0 0 1 -3.27-1.72 3.927 3.927 0 0 0 2.27.72h28.72a4 4 0 0 0 3.68-2.42l1.72-4.01a3.048 3.048 0 0 0 .24-1.19v-7.37a3.7 3.7 0 0 1 1 .2z" fill="#922157"/><path d="m52 27v11.38a3.048 3.048 0 0 1 -.24 1.19l-1.72 4.01a4 4 0 0 1 -3.68 2.42h-28.72a4 4 0 0 1 -3.68-2.42l-1.72-4.01a3.048 3.048 0 0 1 -.24-1.19v-11.38z" fill="#ea348b"/><rect fill="#ec4b98" height="4" rx="2" width="16" x="16" y="29"/><path d="m54.6 52-.23 3.4a5.789 5.789 0 0 1 -.07.6h-14.3a2.006 2.006 0 0 1 -2-2 2.015 2.015 0 0 1 2-2z" fill="#d34589"/><path d="m30 41h4v2h-4z" fill="#fff"/></g></svg>