<?xml version="1.0" encoding="iso-8859-1"?>
<!-- Generator: Adobe Illustrator 19.0.0, SVG Export Plug-In . SVG Version: 6.00 Build 0)  -->
<svg version="1.1" id="Capa_1" xmlns="http://www.w3.org/2000/svg" xmlns:xlink="http://www.w3.org/1999/xlink" x="0px" y="0px"
	 viewBox="0 0 512 512" style="enable-background:new 0 0 512 512;" xml:space="preserve">
<path style="fill:#FFC350;" d="M256,0c-49.294,0-89.397,40.103-89.397,89.397v73.143h16.254V89.397
	c0-40.333,32.81-73.143,73.143-73.143s73.143,32.81,73.143,73.143v73.143h16.254V89.397C345.397,40.103,305.294,0,256,0z"/>
<g>
	<rect x="166.6" y="138.16" style="fill:#E1A546;" width="16.254" height="24.381"/>
	<rect x="329.14" y="138.16" style="fill:#E1A546;" width="16.254" height="24.381"/>
</g>
<path style="fill:#E6646E;" d="M481.231,454.516l-47.284-260.063c-4.216-23.187-24.409-40.04-47.975-40.04H126.029
	c-23.566,0-43.759,16.853-47.975,40.04L30.769,454.516C25.327,484.447,48.322,512,78.745,512h354.511
	C463.678,512,486.673,484.447,481.231,454.516z"/>
<g>
	<path style="fill:#DC4655;" d="M245.885,471.365c-91.268,0-160.253-82.658-143.926-172.454l26.272-144.499h-2.202
		c-23.566,0-43.759,16.853-47.975,40.039L30.769,454.516C25.327,484.447,48.322,512,78.745,512h354.511
		c24.561,0,44.259-17.964,48.083-40.635H245.885z"/>
	<path style="fill:#DC4655;" d="M370.377,301.833c4.783-13.053,7.527-27.079,7.527-41.77v-105.65H361.65v105.651
		c0,58.254-47.397,105.651-105.651,105.651s-105.651-47.397-105.651-105.651V154.413h-16.254v105.651
		c0,14.556,2.696,28.459,7.396,41.411c-9.416,7.416-15.523,18.813-15.523,31.732c0,22.442,18.193,40.635,40.635,40.635
		c10.022,0,19.1-3.716,26.15-9.76c18.467,11.27,40.072,17.887,63.247,17.887c23.038,0,44.525-6.54,62.921-17.689
		c7.019,5.933,16.019,9.563,25.937,9.563c22.442,0,40.635-18.192,40.635-40.635C385.493,320.482,379.552,309.256,370.377,301.833z"
		/>
</g>
<circle style="fill:#FFD164;" cx="166.6" cy="333.21" r="24.381"/>
<path style="fill:#FFC350;" d="M178.794,345.397c-13.465,0-24.381-10.916-24.381-24.381c0-3.573,0.811-6.94,2.192-9.998
	c-8.466,3.822-14.382,12.296-14.382,22.189c0,13.465,10.916,24.381,24.381,24.381c9.892,0,18.366-5.917,22.189-14.383
	C185.735,344.585,182.367,345.397,178.794,345.397z"/>
<circle style="fill:#FFD164;" cx="345.4" cy="333.21" r="24.381"/>
<path style="fill:#FFC350;" d="M357.587,345.397c-13.465,0-24.381-10.916-24.381-24.381c0-3.573,0.811-6.94,2.192-9.998
	c-8.466,3.822-14.382,12.296-14.382,22.189c0,13.465,10.916,24.381,24.381,24.381c9.892,0,18.366-5.917,22.189-14.383
	C364.528,344.585,361.16,345.397,357.587,345.397z"/>
<g>
</g>
<g>
</g>
<g>
</g>
<g>
</g>
<g>
</g>
<g>
</g>
<g>
</g>
<g>
</g>
<g>
</g>
<g>
</g>
<g>
</g>
<g>
</g>
<g>
</g>
<g>
</g>
<g>
</g>
</svg>
