<svg id="Capa_1" enable-background="new 0 0 511.262 511.262" height="512" viewBox="0 0 511.262 511.262" width="512" xmlns="http://www.w3.org/2000/svg"><g><g><path d="m479.872 258.631h-224.241l-10.667 103.667 10.667 118.902h178.467c17.43 0 34.129-7.417 45.816-20.348s17.382-30.294 15.625-47.634z" fill="#d94f88"/><path d="m31.39 258.631-15.667 154.587c-1.757 17.341 3.938 34.703 15.625 47.634 11.687 12.932 28.386 20.348 45.816 20.348h178.467v-222.569z" fill="#fa5e97"/></g><g><path d="m367.224 171.655h30c0-78.075-63.518-141.593-141.593-141.593l-10.667 12.236 10.667 17.764c61.532 0 111.593 50.06 111.593 111.593z" fill="#fdb902"/><path d="m114.038 171.655h30c0-61.533 50.061-111.593 111.593-111.593v-30c-78.075 0-141.593 63.518-141.593 141.593z" fill="#fdcb02"/></g><g><path d="m511.262 274.556-5.726-56.493c-3.522-34.762-32.527-60.975-67.466-60.975h-182.439l-10.667 98.543 10.667 104.91z" fill="#fa5e97"/><path d="m5.725 218.063-5.725 56.493 255.63 85.985v-203.453h-182.439c-34.939 0-63.943 26.213-67.466 60.975z" fill="#f68b98"/></g><g><path d="m301.665 344.715c0-25.424-20.61-46.034-46.034-46.034l-10.001 46.034 10.001 46.034c25.424 0 46.034-20.61 46.034-46.034z" fill="#fdb902"/><path d="m255.631 298.681c-25.424 0-46.034 20.61-46.034 46.034s20.61 46.034 46.034 46.034z" fill="#fdcb02"/></g><g><path d="m316.665 344.715c0-33.654-27.38-61.034-61.034-61.034l-10.667 14.617 10.667 15.383c17.112 0 31.034 13.922 31.034 31.034s-13.922 31.034-31.034 31.034l-10.667 15.883 10.667 14.117c33.654 0 61.034-27.379 61.034-61.034z" fill="#ffecef"/><path d="m255.63 375.749c-17.112 0-31.034-13.922-31.034-31.034s13.922-31.034 31.034-31.034v-30c-33.654 0-61.034 27.38-61.034 61.034s27.379 61.034 61.034 61.034z" fill="#f9f9f9"/></g></g></svg>